<svg xmlns="http://www.w3.org/2000/svg" style="display: none;">
    <!-- Javascript -->
    <symbol id="javascript" viewBox="0 0 48 48">
        <path fill="#ffd600" d="M6,42V6h36v36H6z"></path>
        <path fill="#000001"
            d="M29.538 32.947c.692 1.124 1.444 2.201 3.037 2.201 1.338 0 2.04-.665 2.04-1.585 0-1.101-.726-1.492-2.198-2.133l-.807-.344c-2.329-.988-3.878-2.226-3.878-4.841 0-2.41 1.845-4.244 4.728-4.244 2.053 0 3.528.711 4.592 2.573l-2.514 1.607c-.553-.988-1.151-1.377-2.078-1.377-.946 0-1.545.597-1.545 1.377 0 .964.6 1.354 1.985 1.951l.807.344C36.452 29.645 38 30.839 38 33.523 38 36.415 35.716 38 32.65 38c-2.999 0-4.702-1.505-5.65-3.368L29.538 32.947zM17.952 33.029c.506.906 1.275 1.603 2.381 1.603 1.058 0 1.667-.418 1.667-2.043V22h3.333v11.101c0 3.367-1.953 4.899-4.805 4.899-2.577 0-4.437-1.746-5.195-3.368L17.952 33.029z"></path>
    </symbol>

    <!-- Typescript -->
    <symbol id="typescript" viewBox="0 0 48 48">
        <rect width="36" height="36" x="6" y="6" fill="#1976d2"></rect>
        <polygon fill="#fff"
            points="27.49,22 14.227,22 14.227,25.264 18.984,25.264 18.984,40 22.753,40 22.753,25.264 27.49,25.264"></polygon>
        <path fill="#fff"
            d="M39.194,26.084c0,0-1.787-1.192-3.807-1.192s-2.747,0.96-2.747,1.986 
    c0,2.648,7.381,2.383,7.381,7.712c0,8.209-11.254,4.568-11.254,4.568V35.22c0,0,2.152,1.622,4.733,1.622s2.483-1.688,2.483-1.92 
    c0-2.449-7.315-2.449-7.315-7.878c0-7.381,10.658-4.469,10.658-4.469L39.194,26.084z"></path>
    </symbol>

    <!-- Java -->
    <symbol id="java" viewBox="0 0 48 48">
        <path fill="#F44336"
            d="M23.65,24.898c-0.998-1.609-1.722-2.943-2.725-5.455C19.229,15.2,31.24,11.366,26.37,3.999c2.111,5.089-7.577,8.235-8.477,12.473C17.07,20.37,23.645,24.898,23.65,24.898z"></path>
        <path fill="#F44336"
            d="M23.878,17.27c-0.192,2.516,2.229,3.857,2.299,5.695c0.056,1.496-1.447,2.743-1.447,2.743s2.728-0.536,3.579-2.818c0.945-2.534-1.834-4.269-1.548-6.298c0.267-1.938,6.031-5.543,6.031-5.543S24.311,11.611,23.878,17.27z"></path>
        <g>
            <path fill="#1565C0"
                d="M32.084 25.055c1.754-.394 3.233.723 3.233 2.01 0 2.901-4.021 5.643-4.021 5.643s6.225-.742 6.225-5.505C37.521 24.053 34.464 23.266 32.084 25.055zM29.129 27.395c0 0 1.941-1.383 2.458-1.902-4.763 1.011-15.638 1.147-15.638.269 0-.809 3.507-1.638 3.507-1.638s-7.773-.112-7.773 2.181C11.683 28.695 21.858 28.866 29.129 27.395z"></path>
            <path fill="#1565C0"
                d="M27.935,29.571c-4.509,1.499-12.814,1.02-10.354-0.993c-1.198,0-2.974,0.963-2.974,1.889c0,1.857,8.982,3.291,15.63,0.572L27.935,29.571z"></path>
            <path fill="#1565C0"
                d="M18.686,32.739c-1.636,0-2.695,1.054-2.695,1.822c0,2.391,9.76,2.632,13.627,0.205l-2.458-1.632C24.271,34.404,17.014,34.579,18.686,32.739z"></path>
            <path fill="#1565C0"
                d="M36.281,36.632c0-0.936-1.055-1.377-1.433-1.588c2.228,5.373-22.317,4.956-22.317,1.784c0-0.721,1.807-1.427,3.477-1.093l-1.42-0.839C11.26,34.374,9,35.837,9,37.017C9,42.52,36.281,42.255,36.281,36.632z"></path>
            <path fill="#1565C0"
                d="M39,38.604c-4.146,4.095-14.659,5.587-25.231,3.057C24.341,46.164,38.95,43.628,39,38.604z"></path>
        </g>
    </symbol>

    <!-- React -->
    <symbol id="react" viewBox="0 0 48 48">
        <path fill="#80deea"
            d="M24,34C11.1,34,1,29.6,1,24c0-5.6,10.1-10,23-10c12.9,0,23,4.4,23,10C47,29.6,36.9,34,24,34z M24,16 c-12.6,0-21,4.1-21,8c0,3.9,8.4,8,21,8s21-4.1,21-8C45,20.1,36.6,16,24,16z"></path>
        <path fill="#80deea"
            d="M15.1,44.6c-1,0-1.8-0.2-2.6-0.7C7.6,41.1,8.9,30.2,15.3,19l0,0c3-5.2,6.7-9.6,10.3-12.4c3.9-3,7.4-3.9,9.8-2.5 c2.5,1.4,3.4,4.9,2.8,9.8c-0.6,4.6-2.6,10-5.6,15.2c-3,5.2-6.7,9.6-10.3,12.4C19.7,43.5,17.2,44.6,15.1,44.6z M32.9,5.4 c-1.6,0-3.7,0.9-6,2.7c-3.4,2.7-6.9,6.9-9.8,11.9l0,0c-6.3,10.9-6.9,20.3-3.6,22.2c1.7,1,4.5,0.1,7.6-2.3c3.4-2.7,6.9-6.9,9.8-11.9 c2.9-5,4.8-10.1,5.4-14.4c0.5-4-0.1-6.8-1.8-7.8C34,5.6,33.5,5.4,32.9,5.4z"></path>
        <path fill="#80deea"
            d="M33,44.6c-5,0-12.2-6.1-17.6-15.6C8.9,17.8,7.6,6.9,12.5,4.1l0,0C17.4,1.3,26.2,7.8,32.7,19 c3,5.2,5,10.6,5.6,15.2c0.7,4.9-0.3,8.3-2.8,9.8C34.7,44.4,33.9,44.6,33,44.6z M13.5,5.8c-3.3,1.9-2.7,11.3,3.6,22.2 c6.3,10.9,14.1,16.1,17.4,14.2c1.7-1,2.3-3.8,1.8-7.8c-0.6-4.3-2.5-9.4-5.4-14.4C24.6,9.1,16.8,3.9,13.5,5.8L13.5,5.8z"></path>
        <circle cx="24" cy="24" r="4" fill="#80deea"></circle>
    </symbol>

    <!-- Node.js -->
    <symbol id="node.js" viewBox="0 0 24 24" fill="none" stroke="currentColor" stroke-width="2"
        stroke-linecap="round" stroke-linejoin="round">
        <path stroke="none" d="M0 0h24v24H0z" fill="none" />
        <path
            d="M9 9v8.044a2 2 0 0 1 -2.996 1.734l-1.568 -.9a3 3 0 0 1 -1.436 -2.561v-6.635a3 3 0 0 1 1.436 -2.56l6 -3.667a3 3 0 0 1 3.128 0l6 3.667a3 3 0 0 1 1.436 2.561v6.634a3 3 0 0 1 -1.436 2.56l-6 3.667a3 3 0 0 1 -3.128 0" />
        <path d="M17 9h-3.5a1.5 1.5 0 0 0 0 3h2a1.5 1.5 0 0 1 0 3h-3.5" />
    </symbol>

    <!-- Vercel -->
    <symbol id="vercel" viewBox="0 0 128 128">
        <path style="fill-rule:nonzero;fill:#000;fill-opacity:1"
            d="M63.984 17.184 127.964 128H0Zm0 0" />
    </symbol>

    <!-- Vite -->
    <symbol id="vite" viewBox="0 0 48 48">
        <path fill="#9575cd"
            d="M44.86,9.976L25.023,45.448c-0.41,0.732-1.462,0.737-1.878,0.008L2.915,9.979 C2.462,9.185,3.141,8.223,4.041,8.384l19.859,3.55c0.127,0.023,0.256,0.022,0.383-0.001l19.443-3.544 C44.623,8.225,45.305,9.18,44.86,9.976z"></path>
        <path fill="#fbc02d"
            d="M33.574,3.01L19.019,5.862c-0.239,0.047-0.416,0.25-0.431,0.493l-0.895,15.121 c-0.021,0.356,0.306,0.633,0.654,0.552l4.052-0.935c0.379-0.087,0.722,0.246,0.644,0.628l-1.204,5.895 c-0.081,0.397,0.291,0.736,0.679,0.618l2.503-0.76c0.388-0.118,0.761,0.222,0.679,0.62l-1.913,9.26 c-0.12,0.579,0.651,0.895,0.972,0.398l0.215-0.332l11.86-23.669c0.199-0.396-0.144-0.848-0.579-0.764l-4.171,0.805 c-0.392,0.076-0.725-0.289-0.615-0.673l2.722-9.438C34.301,3.299,33.967,2.933,33.574,3.01z"></path>
    </symbol>

    <!-- Angular -->
    <symbol id="angular" viewBox="0 0 128 128" xmlns="http://www.w3.org/2000/svg">
        <g id="surface1">
            <path
                style="stroke:none;fill-rule:nonzero;fill:rgb(86.666667%,0%,19.215686%);fill-opacity:1;"
                d="M 64 15.359375 L 16.332031 32.359375 L 23.601562 95.386719 L 64 117.761719 L 104.398438 95.386719 L 111.667969 32.359375 Z M 64 15.359375 " />
            <path
                style="stroke:none;fill-rule:nonzero;fill:rgb(76.470588%,0%,18.431373%);fill-opacity:1;"
                d="M 64 15.359375 L 64 26.726562 L 64 26.675781 L 64 117.761719 L 104.398438 95.386719 L 111.667969 32.359375 Z M 64 15.359375 " />
            <path style="stroke:none;fill-rule:nonzero;fill:rgb(100%,100%,100%);fill-opacity:1;"
                d="M 64 26.675781 L 34.203125 93.492188 L 45.3125 93.492188 L 51.300781 78.539062 L 76.59375 78.539062 L 82.585938 93.492188 L 93.695312 93.492188 Z M 72.703125 69.324219 L 55.296875 69.324219 L 64 48.382812 Z M 72.703125 69.324219 " />
        </g>
    </symbol>

    <!-- Springboot -->
    <symbol id="springboot" viewBox="0 0 64 64">
        <path
            fill="#68bd45"
            d="M58.2 3.365a29.503 29.503 0 0 1-3.419 6.064A32.094 32.094 0 1 0 9.965 55.372l1.186 1.047a32.08 32.08 0 0 0 52.67-22.253c.875-8.17-1.524-18.51-5.62-30.8zM14.53 55.558a2.744 2.744 0 1 1-.404-3.857 2.744 2.744 0 0 1 .404 3.857zm43.538-9.61c-7.92 10.55-24.83 6.99-35.672 7.502 0 0-1.922.113-3.857.43 0 0 .73-.31 1.663-.663 7.614-2.65 11.213-3.16 15.838-5.54 8.708-4.427 17.322-14.122 19.112-24.2-3.313 9.695-13.373 18.032-22.53 21.418-6.276 2.313-17.614 4.566-17.614 4.566l-.457-.245c-7.714-3.75-7.952-20.457 6.077-25.845 6.143-2.366 12.02-1.067 18.654-2.65 7.084-1.683 15.28-6.99 18.615-13.916 3.73 11.08 8.224 28.422.166 39.15z"
        />
    </symbol>

    <!-- Supabase -->
    <symbol id="supabase" viewBox="0 0 109 113" fill="none">
        <path
            d="M63.7076 110.284C60.8481 113.885 55.0502 111.912 54.9813 107.314L53.9738 40.0627L99.1935 40.0627C107.384 40.0627 111.952 49.5228 106.859 55.9374L63.7076 110.284Z"
            fill="url(#supabase__paint0_linear)" />
        <path
            d="M63.7076 110.284C60.8481 113.885 55.0502 111.912 54.9813 107.314L53.9738 40.0627L99.1935 40.0627C107.384 40.0627 111.952 49.5228 106.859 55.9374L63.7076 110.284Z"
            fill="url(#supabase__paint1_linear)" fill-opacity="0.2" />
        <path
            d="M45.317 2.07103C48.1765 -1.53037 53.9745 0.442937 54.0434 5.041L54.4849 72.2922H9.83113C1.64038 72.2922 -2.92775 62.8321 2.1655 56.4175L45.317 2.07103Z"
            fill="#3ECF8E" />

        <defs>
            <linearGradient id="supabase__paint0_linear" x1="53.9738" y1="54.974" x2="94.1635"
                y2="71.8295" gradientUnits="userSpaceOnUse">
                <stop stop-color="#249361" />
                <stop offset="1" stop-color="#3ECF8E" />
            </linearGradient>

            <linearGradient id="supabase__paint1_linear" x1="36.1558" y1="30.578" x2="54.4844"
                y2="65.0806" gradientUnits="userSpaceOnUse">
                <stop />
                <stop offset="1" stop-opacity="0" />
            </linearGradient>
        </defs>
    </symbol>

    <!-- Hibernate -->
    <symbol id="hibernate" viewBox="0 0 128 128">
        <path
            fill="#59666c"
            d="m29.246 3.766 23.168 40.129-23.18 40.19-23.156-40.19Zm69.508 120.468L75.586 84.105l23.18-40.19 23.156 40.19Zm0 0"
        />
        <path
            fill="#bcae79"
            d="M75.594 3.766H29.258L52.43 43.898h46.35ZM52.406 124.23H98.75L75.594 84.102H29.219Zm0 0"
        />
    </symbol>

    <!-- SQL -->
    <symbol id="sql" viewBox="0 0 128 128">
        <path fill="#00618A"
            d="M116.948 97.807c-6.863-.187-12.104.452-16.585 2.341-1.273.537-3.305.552-3.513 2.147.7.733.809 1.829 1.365 2.731 1.07 1.73 2.876 4.052 4.488 5.268 1.762 1.33 3.577 2.751 5.465 3.902 3.358 2.047 7.107 3.217 10.34 5.268 1.906 1.21 3.799 2.733 5.658 4.097.92.675 1.537 1.724 2.732 2.147v-.194c-.628-.8-.79-1.898-1.366-2.733l-2.537-2.537c-2.48-3.292-5.629-6.184-8.976-8.585-2.669-1.916-8.642-4.504-9.755-7.609l-.195-.195c1.892-.214 4.107-.898 5.854-1.367 2.934-.786 5.556-.583 8.585-1.365l4.097-1.171v-.78c-1.531-1.571-2.623-3.651-4.292-5.073-4.37-3.72-9.138-7.437-14.048-10.537-2.724-1.718-6.089-2.835-8.976-4.292-.971-.491-2.677-.746-3.318-1.562-1.517-1.932-2.342-4.382-3.511-6.633-2.449-4.717-4.854-9.868-7.024-14.831-1.48-3.384-2.447-6.72-4.293-9.756-8.86-14.567-18.396-23.358-33.169-32-3.144-1.838-6.929-2.563-10.929-3.513-2.145-.129-4.292-.26-6.438-.391-1.311-.546-2.673-2.149-3.902-2.927C17.811 4.565 5.257-2.16 1.633 6.682c-2.289 5.581 3.421 11.025 5.462 13.854 1.434 1.982 3.269 4.207 4.293 6.438.674 1.467.79 2.938 1.367 4.489 1.417 3.822 2.652 7.98 4.487 11.511.927 1.788 1.949 3.67 3.122 5.268.718.981 1.951 1.413 2.145 2.927-1.204 1.686-1.273 4.304-1.95 6.44-3.05 9.615-1.899 21.567 2.537 28.683 1.36 2.186 4.567 6.871 8.975 5.073 3.856-1.57 2.995-6.438 4.098-10.732.249-.973.096-1.689.585-2.341v.195l3.513 7.024c2.6 4.187 7.212 8.562 11.122 11.514 2.027 1.531 3.623 4.177 6.244 5.073v-.196h-.195c-.508-.791-1.303-1.119-1.951-1.755-1.527-1.497-3.225-3.358-4.487-5.073-3.556-4.827-6.698-10.11-9.561-15.609-1.368-2.627-2.557-5.523-3.709-8.196-.444-1.03-.438-2.589-1.364-3.122-1.263 1.958-3.122 3.542-4.098 5.854-1.561 3.696-1.762 8.204-2.341 12.878-.342.122-.19.038-.391.194-2.718-.655-3.672-3.452-4.683-5.853-2.554-6.07-3.029-15.842-.781-22.829.582-1.809 3.21-7.501 2.146-9.172-.508-1.666-2.184-2.63-3.121-3.903-1.161-1.574-2.319-3.646-3.124-5.464-2.09-4.731-3.066-10.044-5.267-14.828-1.053-2.287-2.832-4.602-4.293-6.634-1.617-2.253-3.429-3.912-4.683-6.635-.446-.968-1.051-2.518-.391-3.513.21-.671.508-.951 1.171-1.17 1.132-.873 4.284.29 5.462.779 3.129 1.3 5.741 2.538 8.392 4.294 1.271.844 2.559 2.475 4.097 2.927h1.756c2.747.631 5.824.195 8.391.975 4.536 1.378 8.601 3.523 12.292 5.854 11.246 7.102 20.442 17.21 26.732 29.269 1.012 1.942 1.45 3.794 2.341 5.854 1.798 4.153 4.063 8.426 5.852 12.488 1.786 4.052 3.526 8.141 6.05 11.513 1.327 1.772 6.451 2.723 8.781 3.708 1.632.689 4.307 1.409 5.854 2.34 2.953 1.782 5.815 3.903 8.586 5.855 1.383.975 5.64 3.116 5.852 4.879zM29.729 23.466c-1.431-.027-2.443.156-3.513.389v.195h.195c.683 1.402 1.888 2.306 2.731 3.513.65 1.367 1.301 2.732 1.952 4.097l.194-.193c1.209-.853 1.762-2.214 1.755-4.294-.484-.509-.555-1.147-.975-1.755-.556-.811-1.635-1.272-2.339-1.952z" />
    </symbol>

    <!-- Express -->
    <symbol id="express" viewBox="0 0 128 128">
        <path
            d="M126.67 98.44c-4.56 1.16-7.38.05-9.91-3.75-5.68-8.51-11.95-16.63-18-24.9-.78-1.07-1.59-2.12-2.6-3.45C89 76 81.85 85.2 75.14 94.77c-2.4 3.42-4.92 4.91-9.4 3.7l26.92-36.13L67.6 29.71c4.31-.84 7.29-.41 9.93 3.45 5.83 8.52 12.26 16.63 18.67 25.21 6.45-8.55 12.8-16.67 18.8-25.11 2.41-3.42 5-4.72 9.33-3.46-3.28 4.35-6.49 8.63-9.72 12.88-4.36 5.73-8.64 11.53-13.16 17.14-1.61 2-1.35 3.3.09 5.19C109.9 76 118.16 87.1 126.67 98.44zM1.33 61.74c.72-3.61 1.2-7.29 2.2-10.83 6-21.43 30.6-30.34 47.5-17.06C60.93 41.64 63.39 52.62 62.9 65H7.1c-.84 22.21 15.15 35.62 35.53 28.78 7.15-2.4 11.36-8 13.47-15 1.07-3.51 2.84-4.06 6.14-3.06-1.69 8.76-5.52 16.08-13.52 20.66-12 6.86-29.13 4.64-38.14-4.89C5.26 85.89 3 78.92 2 71.39c-.15-1.2-.46-2.38-.7-3.57q.03-3.04.03-6.08zm5.87-1.49h50.43c-.33-16.06-10.33-27.47-24-27.57-15-.12-25.78 11.02-26.43 27.57z" />
    </symbol>

    <!-- MongoDB -->
    <symbol id="mongodb" viewBox="0 0 120 257">
        <path fill="#00ED64"
            d="M82.323 28.55C71.537 15.795 62.249 2.84 60.35.15c-.2-.2-.5-.2-.7 0-1.897 2.69-11.185 15.645-21.971 28.4C-54.902 146.238 52.26 225.661 52.26 225.661l.9.597c.798 12.258 2.795 29.896 2.795 29.896h7.99s1.998-17.539 2.797-29.896l.899-.697c.1 0 107.263-79.323 14.68-197.01ZM59.95 223.867s-4.793-4.086-6.092-6.179v-.199l5.793-128.151c0-.4.6-.4.6 0l5.792 128.151v.199c-1.299 2.093-6.093 6.179-6.093 6.179Z" />
    </symbol>

    <!-- TailwindCSS -->
    <symbol id="tailwindcss" viewBox="0 0 54 33">
        <g clip-path="url(#tailwindcss__a)">
            <path
                fill="#38bdf8"
                fill-rule="evenodd"
                d="M27 0c-7.2 0-11.7 3.6-13.5 10.8 2.7-3.6 5.85-4.95 9.45-4.05 2.054.513 3.522 2.004 5.147 3.653C30.744 13.09 33.808 16.2 40.5 16.2c7.2 0 11.7-3.6 13.5-10.8-2.7 3.6-5.85 4.95-9.45 4.05-2.054-.513-3.522-2.004-5.147-3.653C36.756 3.11 33.692 0 27 0zM13.5 16.2C6.3 16.2 1.8 19.8 0 27c2.7-3.6 5.85-4.95 9.45-4.05 2.054.514 3.522 2.004 5.147 3.653C17.244 29.29 20.308 32.4 27 32.4c7.2 0 11.7-3.6 13.5-10.8-2.7 3.6-5.85-4.95-9.45 4.05-2.054-.513-3.522-2.004-5.147-3.653C23.256 19.31 20.192 16.2 13.5 16.2z"
                clip-rule="evenodd"
            />
        </g>

        <defs>
            <clipPath id="tailwindcss__a">
                <path fill="#fff" d="M0 0h54v32.4H0z" />
            </clipPath>
        </defs>
    </symbol>

    <!-- Render -->
    <symbol id="render" viewBox="0 0 24 24">
        <path
            d="M18.263.007c-3.121-.147-5.744 2.109-6.192 5.082-.018.138-.045.272-.067.405-.696 3.703-3.936 6.507-7.827 6.507a7.9 7.9 0 0 1-3.825-.979.202.202 0 0 0-.302.178V24H12v-8.999c0-1.656 1.338-3 2.987-3h2.988c3.382 0 6.103-2.817 5.97-6.244-.12-3.084-2.61-5.603-5.682-5.75" />
    </symbol>

    <!-- Python -->
    <symbol id="python" viewBox="0 0 128 128" xmlns="http://www.w3.org/2000/svg">
        <path fill="#4490C0"
            d="M63.391 1.988c-4.222.02-8.252.379-11.8 1.007-10.45 1.846-12.346 5.71-12.346 12.837v9.411h24.693v3.137H29.977c-7.176 0-13.46 4.313-15.426 12.521-2.268 9.405-2.368 15.275 0 25.096 1.755 7.311 5.947 12.519 13.124 12.519h8.491V67.234c0-8.151 7.051-15.34 15.426-15.34h24.665c6.866 0 12.346-5.654 12.346-12.548V15.833c0-6.693-5.646-11.72-12.346-12.837-4.244-.706-8.645-1.027-12.866-1.008zM50.037 9.557c2.55 0 4.634 2.117 4.634 4.721 0 2.593-2.083 4.69-4.634 4.69-2.56 0-4.633-2.097-4.633-4.69-.001-2.604 2.073-4.721 4.633-4.721z"
            transform="translate(0 10.26)" />
        <path fill="#FFD54C"
            d="M91.682 28.38v10.966c0 8.5-7.208 15.655-15.426 15.655H51.591c-6.756 0-12.346 5.783-12.346 12.549v23.515c0 6.691 5.818 10.628 12.346 12.547 7.816 2.297 15.312 2.713 24.665 0 6.216-1.801 12.346-5.423 12.346-12.547v-9.412H63.938v-3.138h37.012c7.176 0 9.852-5.005 12.348-12.519 2.578-7.735 2.467-15.174 0-25.096-1.774-7.145-5.161-12.521-12.348-12.521h-9.268zM77.809 87.927c2.561 0 4.634 2.097 4.634 4.692 0 2.602-2.074 4.719-4.634 4.719-2.55 0-4.633-2.117-4.633-4.719 0-2.595 2.083-4.692 4.633-4.692z"
            transform="translate(0 10.26)" />
    </symbol>

    <!-- Pydantic -->
    <symbol id="pydantic" viewBox="0 0 24 24" role="img">
        <path
            d="m23.826 17.316 -4.23 -5.866 -6.847 -9.496c-0.348 -0.48 -1.151 -0.48 -1.497 0l-6.845 9.494 -4.233 5.868a0.925 0.925 0 0 0 0.46 1.417l11.078 3.626h0.002a0.92 0.92 0 0 0 0.572 0h0.002l11.077 -3.626c0.28 -0.092 0.5 -0.31 0.59 -0.592a0.916 0.916 0 0 0 -0.13 -0.825h0.002ZM12.001 4.07l4.44 6.158 -4.152 -1.36c-0.032 -0.01 -0.066 -0.008 -0.098 -0.016a0.8 0.8 0 0 0 -0.096 -0.016c-0.032 -0.004 -0.062 -0.016 -0.094 -0.016s-0.062 0.012 -0.094 0.016a0.74 0.74 0 0 0 -0.096 0.016c-0.032 0.006 -0.066 0.006 -0.096 0.016L7.59 10.221l-0.026 0.008 4.44 -6.158h-0.002Zm-6.273 8.7 4.834 -1.583 0.516 -0.168v9.19L2.41 17.372l3.317 -4.6Zm7.197 7.437V11.02l5.35 1.752 3.316 4.598 -8.666 2.838Z"
            fill="#000000" stroke-width="1" />
    </symbol>

    <!-- Uvicorn -->
    <symbol id="uvicorn" viewBox="0 0 96 96" role="img" xmlns="http://www.w3.org/2000/svg">
        <path fill="#499848"
            d="M41.6482 74.589c-.9099-.2896-.9131-.4175-.0749-2.9628.8372-2.5417.4535-4.9022-1.0983-6.7577-2.1103-2.523-3.1265-4.676-3.4504-7.3101-.2781-2.2615-.3662-2.4408-1.2869-2.6175-.6176-.1186-1.4707.1162-3.5039.9643-2.9582 1.234-3.6627 1.7758-4.3608 3.3536-.3667.8288-.4107 1.3253-.2028 2.284.254 1.1707 1.2949 3.0552 1.689 3.0577.1028.0007.6709.3897 1.2624.8646.9815.7881 1.0489.925.7711 1.5674-.6034 1.3957-2.0372 3.088-2.6164 3.088-.3249 0-1.6518-.9294-3.1123-2.18-2.8688-2.4565-2.9891-2.7028-3.2854-6.7292-.3535-4.8042.8279-7.0463 6.0895-11.5571l3.3002-2.8291.2107-1.7161c.2173-1.7691-.089-5.9815-.604-8.3068-.3043-1.3736-1.3084-2.682-2.2613-2.9464-1.0381-.288-1.6467.3063-2.4365 2.3793-.8521 2.2366-1.6665 3.0169-3.1488 3.0169-.9232 0-1.7848-.5906-2.3797-1.6312-.4263-.7457-.6737-5.2255-.4189-7.5837.1226-1.1343.1296-2.2828.0156-2.5522-.1854-.4383-1.7827-1.3865-5.5485-3.2936-.6845-.3467-1.4826-.8135-1.7735-1.0374-.2908-.2238-1.0456-.6354-1.6772-.9145-1.4306-.6323-5.16085-2.8135-4.81163-2.8135.66066 0 3.46043.8618 4.95093 1.5239.9099.4041 1.7808.7348 1.9355.7348.1546 0 1.9088.5647 3.8981 1.2548 1.9893.6902 3.8075 1.2548 4.0405 1.2548.5533 0 .64-.4786.4627-2.553-.0805-.9423-.077-1.7133.0079-1.7133s.4515.1819.8147.4043c1.1095.6793 3.496 1.0953 6.301 1.0985 2.6822.0032 6.1831.5351 7.5212 1.1432 1.9195.8723 4.146 3.5968 6.9704 8.5294 1.9637 3.4292 4.0735 4.8813 7.0973 4.8845 1.2223.0014 4.4836-.5026 8.8999-1.375 3.6415-.7194 8.4487-.8811 10.3146-.3469 2.2764.6515 5.2863 2.3935 7.7749 4.4996 2.3292 1.9712 2.6879 2.4088 4.1187 5.0246 1.7076 3.1217 3.5922 7.5584 5.2681 12.4019.2388.6902.7431 1.8511 1.1208 2.5798 1.0077 1.9444.9574 2.063-.8737 2.063-1.9874 0-2.9195-.3134-4.2224-1.4197-1.2495-1.0611-1.576-1.7103-3.5318-7.0242-1.0018-2.7218-1.977-4.3552-2.6003-4.3552-.4271 0-1.2915 2.9168-1.2915 4.3579 0 1.0235.6414 2.4062 2.2996 4.9575 2.6939 4.1446 4.111 10.0035 3.5437 14.6516l-.245 2.0077-1.7953.0747c-2.8265.1177-2.7982.157-2.7982-3.8847 0-4.3029-.293-5.2347-2.1919-6.9701-.7887-.7208-2.5582-2.7687-3.9322-4.5508-1.3741-1.7822-2.6899-3.2404-2.9242-3.2404-.5382 0-.8066 1.4656-.8352 4.5609-.0188 2.0384-.0991 2.3834-.7005 3.0115-1.6304 1.7029-2.7749 4.8035-3.4804 9.4294-.1562 1.0239-.2901 1.2155-.9538 1.3645-.9759.2191-3.6802.255-3.9133.0519-.201-.1751.1512-2.9556.9502-7.5013.3032-1.7253.6342-4.0405.7355-5.1447.1804-1.9658-.2227-5.6487-.6997-6.3939-.1984-.3098-1.2083-.3769-5.9322-.3942-3.1312-.0115-6.5652-.1145-7.631-.2289l-1.9379-.208v.8599c0 .9209.236 1.7326 1.8145 6.2396.5559 1.5873 1.3615 4.0072 1.7901 5.3776l.7794 2.4915-.6577 2.0258c-.3617 1.1142-.8986 2.4493-1.193 2.967-.5193.9129-.5802.9405-2.0367.9213-.8258-.0109-1.8692-.1369-2.3187-.28Z"></path>
    </symbol>

    <!-- FastAPI -->
    <symbol id="fastapi" viewBox="0 0 256 256">
        <path
            d="M128 0C57.33 0 0 57.33 0 128s57.33 128 128 128 128-57.33 128-128S198.67 0 128 0Zm-6.67 230.605v-80.288H76.699l64.128-124.922v80.288h42.966L121.33 230.605Z"
            fill="#009688" />
    </symbol>

    <!-- Github -->
    <symbol id="github" viewBox="0 0 128 128" fill="#fafafa">
        <g fill="#fafafa">
            <path fill-rule="evenodd" clip-rule="evenodd"
                d="M64 5.103c-33.347 0-60.388 27.035-60.388 60.388 0 26.682 17.303 49.317 41.297 57.303 3.017.56 4.125-1.31 4.125-2.905 0-1.44-.056-6.197-.082-11.243-16.8 3.653-20.345-7.125-20.345-7.125-2.747-6.98-6.705-8.836-6.705-8.836-5.48-3.748.413-3.67.413-3.67 6.063.425 9.257 6.223 9.257 6.223 5.386 9.23 14.127 6.562 17.573 5.02.542-3.903 2.107-6.568 3.834-8.076-13.413-1.525-27.514-6.704-27.514-29.843 0-6.593 2.36-11.98 6.223-16.21-.628-1.52-2.695-7.662.584-15.98 0 0 5.07-1.623 16.61 6.19C53.7 35 58.867 34.327 64 34.304c5.13.023 10.3.694 15.127 2.033 11.526-7.813 16.59-6.19 16.59-6.19 3.287 8.317 1.22 14.46.593 15.98 3.872 4.23 6.215 9.617 6.215 16.21 0 23.194-14.127 28.3-27.574 29.796 2.167 1.874 4.097 5.55 4.097 11.183 0 8.08-.07 14.583-.07 16.572 0 1.607 1.088 3.49 4.148 2.897 23.98-7.994 41.263-30.622 41.263-57.294C124.388 32.14 97.35 5.104 64 5.104z" />
            <path
                d="M26.484 91.806c-.133.3-.605.39-1.035.185-.44-.196-.685-.605-.543-.906.13-.31.603-.395 1.04-.188.44.197.69.61.537.91zm2.446 2.729c-.287.267-.85.143-1.232-.28-.396-.42-.47-.983-.177-1.254.298-.266.844-.14 1.24.28.394.426.472.984.17 1.255zM31.312 98.012c-.37.258-.976.017-1.35-.52-.37-.538-.37-1.183.01-1.44.373-.258.97-.025 1.35.507.368.545.368 1.19-.01 1.452zm3.261 3.361c-.33.365-1.036.267-1.552-.23-.527-.487-.674-1.18-.343-1.544.336-.366 1.045-.264 1.564.23.527.486.686 1.18.333 1.543zm4.5 1.951c-.147.473-.825.688-1.51.486-.683-.207-1.13-.76-.99-1.238.14-.477.823-.7 1.512-.485.683.206 1.13.756.988 1.237zm4.943.361c.017.498-.563.91-1.28.92-.723.017-1.308-.387-1.315-.877 0-.503.568-.91 1.29-.924.717-.013 1.306.387 1.306.88zm4.598-.782c.086.485-.413.984-1.126 1.117-.7.13-1.35-.172-1.44-.653-.086-.498.422-.997 1.122-1.126.714-.123 1.354.17 1.444.663zm0 0" />
        </g>
    </symbol>

    <!-- Link icon -->
    <symbol id="link" viewBox="0 0 24 24" fill="none" stroke="currentColor" stroke-width="2"
        stroke-linecap="round" stroke-linejoin="round">
        <path stroke="none" d="M0 0h24v24H0z" fill="none" />
        <path d="M9 15l6 -6" />
        <path d="M11 6l.463 -.536a5 5 0 0 1 7.071 7.072l-.534 .464" />
        <path d="M13 18l-.397 .534a5.068 5.068 0 0 1 -7.127 0a4.972 4.972 0 0 1 0 -7.071l.524 -.463" />
    </symbol>

    <!-- Chevron down -->
    <symbol id="icon-chevron-down" viewBox="0 0 32 32">
        <polygon
            points="6.9,8 16,17.1 25.1,8 29,11.9 16,24.9 3,11.9"
            fill="#fafafa"
            stroke="currentColor"
            stroke-width="2"
            stroke-miterlimit="10"
        />
    </symbol>

    <!-- Close (X) -->
    <symbol id="icon-window-close" viewBox="0 0 24 24">
        <path
            d="M19 5L5 19M5 5L19 19"
            fill="#fafafa"
            stroke="currentColor"
            stroke-width="1.5"
            stroke-linecap="round"
            stroke-linejoin="round"
        />
    </symbol>

    <!-- Minimize -->
    <symbol id="icon-window-minimize" viewBox="0 0 24 24">
        <path
            d="M6 11H18V13H6V11Z"
            fill="#fafafa"
        />
    </symbol>

    <!-- Restore -->
    <symbol id="icon-window-restore" viewBox="0 0 50 50">
        <path
            d="M15.243,19.194c0.553,0,1-0.447,1-1s-0.447-1-1-1h-3.77c-0.553,0-1,0.447-1,1v21.951
         c0,0.553,0.447,1,1,1h21.951c0.553,0,1-0.447,1-1v-3.765c0-0.553-0.447-1-1-1s-1,0.447-1,1
         v2.765H12.474V19.194H15.243z"
            fill="#fafafa"
        />
        <path
            d="M41.474,9.146H19.522c-0.553,0-1,0.447-1,1v21.951c0,0.553,0.447,1,1,1h21.951
         c0.553,0,1-0.447,1-1V10.146C42.474,9.593,42.026,9.146,41.474,9.146z
         M40.474,31.097H20.522V11.146h19.951V31.097z"
            fill="#fafafa"
        />
    </symbol>
</svg>